<svg width="192" height="44" viewBox="0 0 192 44" fill="none" xmlns="http://www.w3.org/2000/svg">
<path fill-rule="evenodd" clip-rule="evenodd" d="M178.216 13.7877L177.746 14.257L177.231 14.7718L176.247 15.756V17.7244C176.247 17.7756 176.247 17.8239 176.247 17.8751V23.6294L178.216 21.6611L180.958 18.919L181.171 18.7057L182.155 17.7215V16.0945V9.84525L180.656 11.3443L179.203 12.7978L178.218 13.782L178.216 13.7877ZM182.155 7.73183V9.8481H187.019C187.042 9.8481 187.068 9.8481 187.09 9.8481C187.105 9.8481 187.119 9.8481 187.133 9.8481C187.142 9.8481 187.15 9.8481 187.161 9.8481H192V19.6956V20.4835C192 23.3109 189.707 25.6035 186.88 25.6035H182.152H176.244H171.321H166.397V11.9701C166.397 10.6133 166.937 9.3105 167.896 8.34908L171.321 4.92436L175.021 1.22374C175.804 0.441518 176.867 0.00062911 177.974 0.00062911C178.054 0.00062911 178.125 -0.00204755 178.204 0.00364134L178.213 0.00347353H182.152V4.17912V7.73468L182.155 7.73183Z" fill="#DAA961"/>
<path d="M11.83 21.9004L11.8158 21.9061L11.7447 21.9772C11.7447 21.9772 11.739 21.9829 11.7333 21.9886L5.12 28.6048V10.2439H0V43.5239H5.12V35.4058L11.6935 41.9822C11.722 42.0106 11.7504 42.0391 11.7788 42.0675L11.813 42.1017C12.7317 42.9834 13.9804 43.5239 15.3543 43.5239H20.4743V38.4039H15.3543L10.2372 33.2839L8.96 32.0039L15.36 25.6039H20.48V20.4839H15.36C13.989 20.4839 12.7488 21.0243 11.83 21.9004ZM5.12 32.0608V31.9413L5.18258 32.001L5.12 32.0608Z" fill="white"/>
<path d="M161.28 38.4035V25.6035C161.28 22.7761 158.987 20.4835 156.16 20.4835H143.36V25.6035H154.88C155.585 25.6035 156.16 26.1752 156.16 26.8835V28.1635H145.92C143.092 28.1635 140.8 30.4561 140.8 33.2835V38.4035C140.8 41.2308 143.092 43.5235 145.92 43.5235H153.6L154.88 42.2435L156.16 40.9635V43.5235H163.84V38.4035H161.28ZM156.16 38.4035H147.2C146.492 38.4035 145.92 37.8317 145.92 37.1235V34.5635C145.92 33.8552 146.492 33.2835 147.2 33.2835H156.16V38.4035Z" fill="white"/>
<path d="M115.2 25.6035C115.2 22.7761 112.908 20.4835 110.08 20.4835H97.2802V25.6035H108.8C109.506 25.6035 110.08 26.1752 110.08 26.8835V28.1635H99.8402C97.0128 28.1635 94.7202 30.4561 94.7202 33.2835V38.4035C94.7202 41.2308 97.0128 43.5235 99.8402 43.5235H107.52L108.8 42.2435L110.08 40.9635V43.5235H117.76V38.4035H115.2V25.6035ZM110.08 38.4035H101.12C100.415 38.4035 99.8402 37.8317 99.8402 37.1235V34.5635C99.8402 33.8552 100.415 33.2835 101.12 33.2835H110.08V38.4035Z" fill="white"/>
<path d="M140.8 28.1635V25.6035C140.8 22.7761 138.508 20.4835 135.68 20.4835H130.56L129.28 21.7635L128 23.0435V20.4835H120.32V25.6035H122.88V38.4035H120.32V43.5235H133.12V38.4035H128V25.6035H134.4C135.106 25.6035 135.68 26.1752 135.68 26.8835V28.1635H140.8Z" fill="white"/>
<path d="M64.0001 20.4835H56.3201L55.0401 21.7635L53.7601 23.0435V20.4835H46.0801V25.6035H48.6401V43.5235H53.7601V25.6035H62.7201C63.4255 25.6035 64.0001 26.1752 64.0001 26.8835V43.5235H69.1201V25.6035C69.1201 22.7761 66.8275 20.4835 64.0001 20.4835Z" fill="white"/>
<path d="M43.52 25.6035C43.52 22.7761 41.2274 20.4835 38.4 20.4835H25.6V25.6035H37.12C37.8255 25.6035 38.4 26.1752 38.4 26.8835V28.1635H28.16C25.3327 28.1635 23.04 30.4561 23.04 33.2835V38.4035C23.04 41.2308 25.3327 43.5235 28.16 43.5235H35.84L37.12 42.2435L38.4 40.9635V43.5235H46.08V38.4035H43.52V25.6035ZM38.4 38.4035H29.44C28.7318 38.4035 28.16 37.8317 28.16 37.1235V34.5635C28.16 33.8552 28.7318 33.2835 29.44 33.2835H38.4V38.4035Z" fill="white"/>
<path d="M87.0402 20.4839H76.8002C73.9728 20.4839 71.6802 22.7765 71.6802 25.6039V38.4039C71.6802 41.2313 73.9728 43.5239 76.8002 43.5239H84.4802L85.7602 42.2439L87.0402 40.9639V43.5239H92.1602V10.2439H87.0402V20.4839ZM87.0402 38.4039H78.0802C77.3748 38.4039 76.8002 37.8322 76.8002 37.1239V26.8839C76.8002 26.1756 77.3748 25.6039 78.0802 25.6039H87.0402V38.4039Z" fill="white"/>
</svg>
