<svg width="26" height="26" viewBox="0 0 26 26" fill="none" xmlns="http://www.w3.org/2000/svg">
<path fill-rule="evenodd" clip-rule="evenodd" d="M12.2156 13.7877L11.7463 14.257L11.2315 14.7718L10.2473 15.756V17.7244C10.2473 17.7756 10.2473 17.8239 10.2473 17.8751V23.6294L12.2156 21.6611L14.9577 18.919L15.171 18.7057L16.1552 17.7215V16.0945V9.84525L14.6562 11.3443L13.2027 12.7978L12.2185 13.782L12.2156 13.7877ZM16.1552 7.73183V9.8481H21.0192C21.0419 9.8481 21.0675 9.8481 21.0903 9.8481C21.1045 9.8481 21.1188 9.8481 21.133 9.8481C21.1415 9.8481 21.15 9.8481 21.1614 9.8481H25.9998V19.6956V20.4835C25.9998 23.3109 23.7072 25.6035 20.8798 25.6035H16.1524H10.2444H5.3207H0.396973V11.9701C0.396973 10.6133 0.937423 9.3105 1.896 8.34908L5.3207 4.92436L9.02133 1.22374C9.80355 0.441518 10.8674 0.00062911 11.9739 0.00062911C12.0535 0.00062911 12.1245 -0.00204755 12.2042 0.00364134L12.2128 0.00347353H16.1524V4.17912V7.73468L16.1552 7.73183Z" fill="#DAA961"/>
</svg>
